<svg class="marks" width="717" height="132" viewBox="0 0 717 132" version="1.1" xmlns="http://www.w3.org/2000/svg" xmlns:xlink="http://www.w3.org/1999/xlink"><g transform="translate(52,5)"><g class="mark-group role-frame root"><g transform="translate(0,0)"><path class="background" d="M0.5,0.5h600v105h-600Z" style="fill: none; stroke: #ddd;"></path><g><g class="mark-group role-axis"><g transform="translate(0.5,105.5)"><path class="background" d="M0,0h0v0h0Z" style="pointer-events: none; fill: none;"></path><g><g class="mark-rule role-axis-grid" style="pointer-events: none;"><line transform="translate(92,0)" x2="0" y2="-105" style="fill: none; stroke: #ddd; stroke-width: 1; opacity: 1;"></line><line transform="translate(185,0)" x2="0" y2="-105" style="fill: none; stroke: #ddd; stroke-width: 1; opacity: 1;"></line><line transform="translate(0,0)" x2="0" y2="-105" style="fill: none; stroke: #ddd; stroke-width: 1; opacity: 1;"></line><line transform="translate(46,0)" x2="0" y2="-105" style="fill: none; stroke: #ddd; stroke-width: 1; opacity: 1;"></line><line transform="translate(138,0)" x2="0" y2="-105" style="fill: none; stroke: #ddd; stroke-width: 1; opacity: 1;"></line><line transform="translate(231,0)" x2="0" y2="-105" style="fill: none; stroke: #ddd; stroke-width: 1; opacity: 1;"></line><line transform="translate(277,0)" x2="0" y2="-105" style="fill: none; stroke: #ddd; stroke-width: 1; opacity: 1;"></line><line transform="translate(323,0)" x2="0" y2="-105" style="fill: none; stroke: #ddd; stroke-width: 1; opacity: 1;"></line><line transform="translate(369,0)" x2="0" y2="-105" style="fill: none; stroke: #ddd; stroke-width: 1; opacity: 1;"></line><line transform="translate(415,0)" x2="0" y2="-105" style="fill: none; stroke: #ddd; stroke-width: 1; opacity: 1;"></line><line transform="translate(462,0)" x2="0" y2="-105" style="fill: none; stroke: #ddd; stroke-width: 1; opacity: 1;"></line><line transform="translate(508,0)" x2="0" y2="-105" style="fill: none; stroke: #ddd; stroke-width: 1; opacity: 1;"></line><line transform="translate(554,0)" x2="0" y2="-105" style="fill: none; stroke: #ddd; stroke-width: 1; opacity: 1;"></line><line transform="translate(600,0)" x2="0" y2="-105" style="fill: none; stroke: #ddd; stroke-width: 1; opacity: 1;"></line></g></g></g></g><g class="mark-rect role-mark marks"><path d="M25.47445283076923,22.049999999999997h101.54270880000001v18.900000000000002h-101.54270880000001Z" style="fill: #4c78a8;"></path><path d="M127.01913664615385,22.049999999999997h101.5392068307692v18.900000000000002h-101.5392068307692Z" style="fill: #4c78a8;"></path><path d="M228.55938286153847,1.0499999999999972h9.231565015384604v18.900000000000002h-9.231565015384604Z" style="fill: #4c78a8;"></path><path d="M237.7924369846154,22.049999999999997h101.53903356923075v18.900000000000002h-101.53903356923075Z" style="fill: #4c78a8;"></path><path d="M339.3324561230769,1.0499999999999972h9.231691569230804v18.900000000000002h-9.231691569230804Z" style="fill: #4c78a8;"></path><path d="M348.5655690461539,22.049999999999997h101.53905212307694v18.900000000000002h-101.53905212307694Z" style="fill: #4c78a8;"></path><path d="M450.1061651076923,22.049999999999997h101.53924559999996v18.900000000000002h-101.53924559999996Z" style="fill: #4c78a8;"></path><path d="M551.6464167692308,1.0499999999999972h9.23152689230767v18.900000000000002h-9.23152689230767Z" style="fill: #4c78a8;"></path><path d="M560.8794760615384,1.0499999999999972h9.231311353846195v18.900000000000002h-9.231311353846195Z" style="fill: #4c78a8;"></path><path d="M570.1120533230769,1.0499999999999972h9.231265753846174v18.900000000000002h-9.231265753846174Z" style="fill: #4c78a8;"></path></g><g class="mark-group role-legend"><g transform="translate(618,0)"><path class="background" d="M0,0h140v27h-140Z" style="pointer-events: none; fill: none;"></path><g><g class="mark-group role-legend-entry"><g transform="translate(0,16)"><path class="background" d="M0,0h0v0h0Z" style="pointer-events: none; fill: none;"></path><g><g class="mark-symbol role-legend-symbol" style="pointer-events: none;"><path transform="translate(5,5)" d="M-5,-5h10v10h-10Z" style="fill: #4c78a8; stroke-width: 1.5; opacity: 1;"></path></g><g class="mark-text role-legend-label" style="pointer-events: none;"><text text-anchor="start" transform="translate(18,8)" style="font: 10px sans-serif; fill: #000; opacity: 1;">9638607460984190000</text></g></g></g></g><g class="mark-text role-legend-title" style="pointer-events: none;"><text text-anchor="start" transform="translate(0,9)" style="font: bold 11px sans-serif; fill: #000; opacity: 1;">thread</text></g></g></g></g><g class="mark-group role-axis"><g transform="translate(0.5,105.5)"><path class="background" d="M0,0h0v0h0Z" style="pointer-events: none; fill: none;"></path><g><g class="mark-rule role-axis-tick" style="pointer-events: none;"><line transform="translate(92,0)" x2="0" y2="5" style="fill: none; stroke: #888; stroke-width: 1; opacity: 1;"></line><line transform="translate(185,0)" x2="0" y2="5" style="fill: none; stroke: #888; stroke-width: 1; opacity: 1;"></line><line transform="translate(0,0)" x2="0" y2="5" style="fill: none; stroke: #888; stroke-width: 1; opacity: 1;"></line><line transform="translate(46,0)" x2="0" y2="5" style="fill: none; stroke: #888; stroke-width: 1; opacity: 1;"></line><line transform="translate(138,0)" x2="0" y2="5" style="fill: none; stroke: #888; stroke-width: 1; opacity: 1;"></line><line transform="translate(231,0)" x2="0" y2="5" style="fill: none; stroke: #888; stroke-width: 1; opacity: 1;"></line><line transform="translate(277,0)" x2="0" y2="5" style="fill: none; stroke: #888; stroke-width: 1; opacity: 1;"></line><line transform="translate(323,0)" x2="0" y2="5" style="fill: none; stroke: #888; stroke-width: 1; opacity: 1;"></line><line transform="translate(369,0)" x2="0" y2="5" style="fill: none; stroke: #888; stroke-width: 1; opacity: 1;"></line><line transform="translate(415,0)" x2="0" y2="5" style="fill: none; stroke: #888; stroke-width: 1; opacity: 1;"></line><line transform="translate(462,0)" x2="0" y2="5" style="fill: none; stroke: #888; stroke-width: 1; opacity: 1;"></line><line transform="translate(508,0)" x2="0" y2="5" style="fill: none; stroke: #888; stroke-width: 1; opacity: 1;"></line><line transform="translate(554,0)" x2="0" y2="5" style="fill: none; stroke: #888; stroke-width: 1; opacity: 1;"></line><line transform="translate(600,0)" x2="0" y2="5" style="fill: none; stroke: #888; stroke-width: 1; opacity: 1;"></line></g><g class="mark-text role-axis-label" style="pointer-events: none;"><text text-anchor="middle" transform="translate(92.3076923076923,15)" style="font: 10px sans-serif; fill: #000; opacity: 0;">3,406,000,000,000</text><text text-anchor="middle" transform="translate(184.6153846153846,15)" style="font: 10px sans-serif; fill: #000; opacity: 1;">3,407,000,000,000</text><text text-anchor="start" transform="translate(0,15)" style="font: 10px sans-serif; fill: #000; opacity: 1;">3,405,000,000,000</text><text text-anchor="middle" transform="translate(46.15384615384615,15)" style="font: 10px sans-serif; fill: #000; opacity: 0;">3,405,500,000,000</text><text text-anchor="middle" transform="translate(138.46153846153848,15)" style="font: 10px sans-serif; fill: #000; opacity: 0;">3,406,500,000,000</text><text text-anchor="middle" transform="translate(230.76923076923077,15)" style="font: 10px sans-serif; fill: #000; opacity: 0;">3,407,500,000,000</text><text text-anchor="middle" transform="translate(276.92307692307696,15)" style="font: 10px sans-serif; fill: #000; opacity: 0;">3,408,000,000,000</text><text text-anchor="middle" transform="translate(323.07692307692304,15)" style="font: 10px sans-serif; fill: #000; opacity: 0;">3,408,500,000,000</text><text text-anchor="middle" transform="translate(369.2307692307692,15)" style="font: 10px sans-serif; fill: #000; opacity: 1;">3,409,000,000,000</text><text text-anchor="middle" transform="translate(415.38461538461536,15)" style="font: 10px sans-serif; fill: #000; opacity: 0;">3,409,500,000,000</text><text text-anchor="middle" transform="translate(461.53846153846155,15)" style="font: 10px sans-serif; fill: #000; opacity: 0;">3,410,000,000,000</text><text text-anchor="middle" transform="translate(507.6923076923077,15)" style="font: 10px sans-serif; fill: #000; opacity: 0;">3,410,500,000,000</text><text text-anchor="middle" transform="translate(553.8461538461539,15)" style="font: 10px sans-serif; fill: #000; opacity: 1;">3,411,000,000,000</text><text text-anchor="end" transform="translate(600,15)" style="font: 10px sans-serif; fill: #000; opacity: 0;">3,411,500,000,000</text></g><g class="mark-rule role-axis-domain" style="pointer-events: none;"><line transform="translate(0,0)" x2="600" y2="0" style="fill: none; stroke: #888; stroke-width: 1; opacity: 1;"></line></g><g class="mark-text role-axis-title" style="pointer-events: none;"><text text-anchor="middle" transform="translate(300,31)" style="font: bold 11px sans-serif; fill: #000; opacity: 1;">start, end</text></g></g></g></g><g class="mark-group role-axis"><g transform="translate(0.5,0.5)"><path class="background" d="M0,0h0v0h0Z" style="pointer-events: none; fill: none;"></path><g><g class="mark-rule role-axis-tick" style="pointer-events: none;"><line transform="translate(0,9)" x2="-5" y2="0" style="fill: none; stroke: #888; stroke-width: 1; opacity: 1;"></line><line transform="translate(0,31)" x2="-5" y2="0" style="fill: none; stroke: #888; stroke-width: 1; opacity: 1;"></line><line transform="translate(0,52)" x2="-5" y2="0" style="fill: none; stroke: #888; stroke-width: 1; opacity: 1;"></line><line transform="translate(0,73)" x2="-5" y2="0" style="fill: none; stroke: #888; stroke-width: 1; opacity: 1;"></line><line transform="translate(0,94)" x2="-5" y2="0" style="fill: none; stroke: #888; stroke-width: 1; opacity: 1;"></line></g><g class="mark-text role-axis-label" style="pointer-events: none;"><text text-anchor="end" transform="translate(-7,12.499999999999998)" style="font: 10px sans-serif; fill: #000; opacity: 1;">0</text><text text-anchor="end" transform="translate(-7,33.5)" style="font: 10px sans-serif; fill: #000; opacity: 1;">1</text><text text-anchor="end" transform="translate(-7,54.5)" style="font: 10px sans-serif; fill: #000; opacity: 1;">2</text><text text-anchor="end" transform="translate(-7,75.5)" style="font: 10px sans-serif; fill: #000; opacity: 1;">3</text><text text-anchor="end" transform="translate(-7,96.5)" style="font: 10px sans-serif; fill: #000; opacity: 1;">4</text></g><g class="mark-rule role-axis-domain" style="pointer-events: none;"><line transform="translate(0,0)" x2="0" y2="105" style="fill: none; stroke: #888; stroke-width: 1; opacity: 1;"></line></g><g class="mark-text role-axis-title" style="pointer-events: none;"><text text-anchor="middle" transform="translate(-34,52.5) rotate(-90) translate(0,-2)" style="font: bold 11px sans-serif; fill: #000; opacity: 1;">task</text></g></g></g></g></g></g></g></g></svg>