<svg class="marks" width="717" height="174" viewBox="0 0 717 174" version="1.1" xmlns="http://www.w3.org/2000/svg" xmlns:xlink="http://www.w3.org/1999/xlink"><g transform="translate(52,5)"><g class="mark-group role-frame root"><g transform="translate(0,0)"><path class="background" d="M0.5,0.5h600v147h-600Z" style="fill: none; stroke: #ddd;"></path><g><g class="mark-group role-axis"><g transform="translate(0.5,147.5)"><path class="background" d="M0,0h0v0h0Z" style="pointer-events: none; fill: none;"></path><g><g class="mark-rule role-axis-grid" style="pointer-events: none;"><line transform="translate(0,0)" x2="0" y2="-147" style="fill: none; stroke: #ddd; stroke-width: 1; opacity: 1;"></line><line transform="translate(33,0)" x2="0" y2="-147" style="fill: none; stroke: #ddd; stroke-width: 1; opacity: 1;"></line><line transform="translate(67,0)" x2="0" y2="-147" style="fill: none; stroke: #ddd; stroke-width: 1; opacity: 1;"></line><line transform="translate(100,0)" x2="0" y2="-147" style="fill: none; stroke: #ddd; stroke-width: 1; opacity: 1;"></line><line transform="translate(133,0)" x2="0" y2="-147" style="fill: none; stroke: #ddd; stroke-width: 1; opacity: 1;"></line><line transform="translate(167,0)" x2="0" y2="-147" style="fill: none; stroke: #ddd; stroke-width: 1; opacity: 1;"></line><line transform="translate(200,0)" x2="0" y2="-147" style="fill: none; stroke: #ddd; stroke-width: 1; opacity: 1;"></line><line transform="translate(233,0)" x2="0" y2="-147" style="fill: none; stroke: #ddd; stroke-width: 1; opacity: 1;"></line><line transform="translate(267,0)" x2="0" y2="-147" style="fill: none; stroke: #ddd; stroke-width: 1; opacity: 1;"></line><line transform="translate(300,0)" x2="0" y2="-147" style="fill: none; stroke: #ddd; stroke-width: 1; opacity: 1;"></line><line transform="translate(333,0)" x2="0" y2="-147" style="fill: none; stroke: #ddd; stroke-width: 1; opacity: 1;"></line><line transform="translate(367,0)" x2="0" y2="-147" style="fill: none; stroke: #ddd; stroke-width: 1; opacity: 1;"></line><line transform="translate(400,0)" x2="0" y2="-147" style="fill: none; stroke: #ddd; stroke-width: 1; opacity: 1;"></line><line transform="translate(433,0)" x2="0" y2="-147" style="fill: none; stroke: #ddd; stroke-width: 1; opacity: 1;"></line><line transform="translate(467,0)" x2="0" y2="-147" style="fill: none; stroke: #ddd; stroke-width: 1; opacity: 1;"></line><line transform="translate(500,0)" x2="0" y2="-147" style="fill: none; stroke: #ddd; stroke-width: 1; opacity: 1;"></line><line transform="translate(533,0)" x2="0" y2="-147" style="fill: none; stroke: #ddd; stroke-width: 1; opacity: 1;"></line><line transform="translate(567,0)" x2="0" y2="-147" style="fill: none; stroke: #ddd; stroke-width: 1; opacity: 1;"></line><line transform="translate(600,0)" x2="0" y2="-147" style="fill: none; stroke: #ddd; stroke-width: 1; opacity: 1;"></line></g></g></g></g><g class="mark-rect role-mark marks"><path d="M51.828092133333335,64.05h20.000622999999997v18.900000000000002h-20.000622999999997Z" style="fill: #4c78a8;"></path><path d="M71.83249103333333,1.0499999999999972h6.333739466666671v18.900000000000002h-6.333739466666671Z" style="fill: #72b7b2;"></path><path d="M78.16952813333333,85.05h7.467163933333325v18.900000000000002h-7.467163933333325Z" style="fill: #b279a2;"></path><path d="M78.17031770000001,22.049999999999997h23.333610833333324v18.900000000000002h-23.333610833333324Z" style="fill: #bab0ac;"></path><path d="M101.50784630000001,43.05h6.667767299999994v18.900000000000002h-6.667767299999994Z" style="fill: #f58518;"></path><path d="M108.17782729999999,64.05h20.000410433333343v18.900000000000002h-20.000410433333343Z" style="fill: #54a24b;"></path><path d="M128.18041953333332,1.0499999999999972h6.333755866666678v18.900000000000002h-6.333755866666678Z" style="fill: #f58518;"></path><path d="M134.51632373333334,85.05h18.800438833333317v18.900000000000002h-18.800438833333317Z" style="fill: #9d755d;"></path><path d="M134.51796113333333,22.049999999999997h23.333600133333334v18.900000000000002h-23.333600133333334Z" style="fill: #e45756;"></path><path d="M157.85380909999998,43.05h6.667078433333359v18.900000000000002h-6.667078433333359Z" style="fill: #4c78a8;"></path><path d="M164.52335453333333,64.05h20.000430899999998v18.900000000000002h-20.000430899999998Z" style="fill: #eeca3b;"></path><path d="M184.52712826666667,1.0499999999999972h6.333718433333331v18.900000000000002h-6.333718433333331Z" style="fill: #ff9da6;"></path><path d="M190.86429526666666,85.05h13.500378566666683v18.900000000000002h-13.500378566666683Z" style="fill: #4c78a8;"></path><path d="M190.86508106666668,22.049999999999997h23.33352389999999v18.900000000000002h-23.33352389999999Z" style="fill: #72b7b2;"></path><path d="M214.2019575,43.05h6.66704630000001v18.900000000000002h-6.66704630000001Z" style="fill: #b279a2;"></path><path d="M220.87282109999998,64.05h20.00033456666668v18.900000000000002h-20.00033456666668Z" style="fill: #bab0ac;"></path><path d="M240.87748259999998,1.0499999999999972h6.333814733333355v18.900000000000002h-6.333814733333355Z" style="fill: #f58518;"></path><path d="M247.21383533333335,22.049999999999997h23.333731v18.900000000000002h-23.333731Z" style="fill: #f58518;"></path><path d="M270.54871686666667,43.05h6.667738966666661v18.900000000000002h-6.667738966666661Z" style="fill: #9d755d;"></path><path d="M247.2148392,85.05h46.86687733333335v18.900000000000002h-46.86687733333335Z" style="fill: #54a24b;"></path><path d="M294.08497286666665,64.05h20.000391400000012v18.900000000000002h-20.000391400000012Z" style="fill: #e45756;"></path><path d="M314.0886214666667,1.0499999999999972h6.333733099999961v18.900000000000002h-6.333733099999961Z" style="fill: #4c78a8;"></path><path d="M320.42423679999996,85.05h14.501202166666701v18.900000000000002h-14.501202166666701Z" style="fill: #eeca3b;"></path><path d="M320.42539949999997,22.049999999999997h23.334216233333393v18.900000000000002h-23.334216233333393Z" style="fill: #ff9da6;"></path><path d="M343.7630895666667,43.05h6.667121800000018v18.900000000000002h-6.667121800000018Z" style="fill: #4c78a8;"></path><path d="M350.4336188666666,64.05h20.000496800000008v18.900000000000002h-20.000496800000008Z" style="fill: #72b7b2;"></path><path d="M370.4380364,1.0499999999999972h6.33396590000001v18.900000000000002h-6.33396590000001Z" style="fill: #b279a2;"></path><path d="M376.7762967666667,22.049999999999997h23.333588499999962v18.900000000000002h-23.333588499999962Z" style="fill: #f58518;"></path><path d="M376.7753071,85.05h26.7003780666667v18.900000000000002h-26.7003780666667Z" style="fill: #bab0ac;"></path><path d="M400.1150722333333,43.05h6.667659766666702v18.900000000000002h-6.667659766666702Z" style="fill: #54a24b;"></path><path d="M406.7866418666667,64.05h20.001470633333327v18.900000000000002h-20.001470633333327Z" style="fill: #f58518;"></path><path d="M426.7892764333333,1.0499999999999972h6.333793366666669v18.900000000000002h-6.333793366666669Z" style="fill: #9d755d;"></path><path d="M433.12537760000004,85.05h13.133773499999961v18.900000000000002h-13.133773499999961Z" style="fill: #e45756;"></path><path d="M433.1260976666667,22.049999999999997h23.333675400000004v18.900000000000002h-23.333675400000004Z" style="fill: #4c78a8;"></path><path d="M456.4647849666666,43.05h6.667657866666673v18.900000000000002h-6.667657866666673Z" style="fill: #eeca3b;"></path><path d="M463.13679756666664,64.05h20.001315066666677v18.900000000000002h-20.001315066666677Z" style="fill: #ff9da6;"></path><path d="M483.1398719666667,1.0499999999999972h6.333782566666628v18.900000000000002h-6.333782566666628Z" style="fill: #4c78a8;"></path><path d="M489.4758294,85.05h12.100373533333368v18.900000000000002h-12.100373533333368Z" style="fill: #72b7b2;"></path><path d="M489.47797376666665,22.049999999999997h23.333530366666764v18.900000000000002h-23.333530366666764Z" style="fill: #b279a2;"></path><path d="M512.8151835666666,43.05h6.667047900000057v18.900000000000002h-6.667047900000057Z" style="fill: #bab0ac;"></path><path d="M519.484342,64.05h20.000360066666758v18.900000000000002h-20.000360066666758Z" style="fill: #f58518;"></path><path d="M539.4884624333333,1.0499999999999972h6.333936733333303v18.900000000000002h-6.333936733333303Z" style="fill: #54a24b;"></path><path d="M545.8266093333333,22.049999999999997h23.333516333333364v18.900000000000002h-23.333516333333364Z" style="fill: #9d755d;"></path><path d="M569.1641252,43.05h6.667091066666671v18.900000000000002h-6.667091066666671Z" style="fill: #e45756;"></path><path d="M545.8255848,85.05h56.60042156666668v18.900000000000002h-56.60042156666668Z" style="fill: #f58518;"></path></g><g class="mark-group role-legend"><g transform="translate(618,0)"><path class="background" d="M0,0h146v192h-146Z" style="pointer-events: none; fill: none;"></path><g><g class="mark-group role-legend-entry"><g transform="translate(0,16)"><path class="background" d="M0,0h0v0h0Z" style="pointer-events: none; fill: none;"></path><g><g class="mark-symbol role-legend-symbol" style="pointer-events: none;"><path transform="translate(5,5)" d="M-5,-5h10v10h-10Z" style="fill: #4c78a8; stroke-width: 1.5; opacity: 1;"></path><path transform="translate(5,110)" d="M-5,-5h10v10h-10Z" style="fill: #ff9da6; stroke-width: 1.5; opacity: 1;"></path><path transform="translate(5,155)" d="M-5,-5h10v10h-10Z" style="fill: #4c78a8; stroke-width: 1.5; opacity: 1;"></path><path transform="translate(5,80)" d="M-5,-5h10v10h-10Z" style="fill: #eeca3b; stroke-width: 1.5; opacity: 1;"></path><path transform="translate(5,50)" d="M-5,-5h10v10h-10Z" style="fill: #72b7b2; stroke-width: 1.5; opacity: 1;"></path><path transform="translate(5,95)" d="M-5,-5h10v10h-10Z" style="fill: #b279a2; stroke-width: 1.5; opacity: 1;"></path><path transform="translate(5,20)" d="M-5,-5h10v10h-10Z" style="fill: #f58518; stroke-width: 1.5; opacity: 1;"></path><path transform="translate(5,65)" d="M-5,-5h10v10h-10Z" style="fill: #54a24b; stroke-width: 1.5; opacity: 1;"></path><path transform="translate(5,140)" d="M-5,-5h10v10h-10Z" style="fill: #bab0ac; stroke-width: 1.5; opacity: 1;"></path><path transform="translate(5,170)" d="M-5,-5h10v10h-10Z" style="fill: #f58518; stroke-width: 1.5; opacity: 1;"></path><path transform="translate(5,125)" d="M-5,-5h10v10h-10Z" style="fill: #9d755d; stroke-width: 1.5; opacity: 1;"></path><path transform="translate(5,35)" d="M-5,-5h10v10h-10Z" style="fill: #e45756; stroke-width: 1.5; opacity: 1;"></path></g><g class="mark-text role-legend-label" style="pointer-events: none;"><text text-anchor="start" transform="translate(18,8)" style="font: 10px sans-serif; fill: #000; opacity: 1;">28172256868679388</text><text text-anchor="start" transform="translate(18,113)" style="font: 10px sans-serif; fill: #000; opacity: 1;">6199048881889004000</text><text text-anchor="start" transform="translate(18,158)" style="font: 10px sans-serif; fill: #000; opacity: 1;">17009696292690002000</text><text text-anchor="start" transform="translate(18,83)" style="font: 10px sans-serif; fill: #000; opacity: 1;">5259216310702511000</text><text text-anchor="start" transform="translate(18,53)" style="font: 10px sans-serif; fill: #000; opacity: 1;">3547540197072605700</text><text text-anchor="start" transform="translate(18,98)" style="font: 10px sans-serif; fill: #000; opacity: 1;">6062143696631265000</text><text text-anchor="start" transform="translate(18,23)" style="font: 10px sans-serif; fill: #000; opacity: 1;">369288616247495300</text><text text-anchor="start" transform="translate(18,68)" style="font: 10px sans-serif; fill: #000; opacity: 1;">4190367273286093000</text><text text-anchor="start" transform="translate(18,143)" style="font: 10px sans-serif; fill: #000; opacity: 1;">9709885998379450000</text><text text-anchor="start" transform="translate(18,173)" style="font: 10px sans-serif; fill: #000; opacity: 1;">17900246686445588000</text><text text-anchor="start" transform="translate(18,128)" style="font: 10px sans-serif; fill: #000; opacity: 1;">6912751647632331000</text><text text-anchor="start" transform="translate(18,38)" style="font: 10px sans-serif; fill: #000; opacity: 1;">1008354830413163500</text></g></g></g></g><g class="mark-text role-legend-title" style="pointer-events: none;"><text text-anchor="start" transform="translate(0,9)" style="font: bold 11px sans-serif; fill: #000; opacity: 1;">thread</text></g></g></g></g><g class="mark-group role-axis"><g transform="translate(0.5,147.5)"><path class="background" d="M0,0h0v0h0Z" style="pointer-events: none; fill: none;"></path><g><g class="mark-rule role-axis-tick" style="pointer-events: none;"><line transform="translate(0,0)" x2="0" y2="5" style="fill: none; stroke: #888; stroke-width: 1; opacity: 1;"></line><line transform="translate(33,0)" x2="0" y2="5" style="fill: none; stroke: #888; stroke-width: 1; opacity: 1;"></line><line transform="translate(67,0)" x2="0" y2="5" style="fill: none; stroke: #888; stroke-width: 1; opacity: 1;"></line><line transform="translate(100,0)" x2="0" y2="5" style="fill: none; stroke: #888; stroke-width: 1; opacity: 1;"></line><line transform="translate(133,0)" x2="0" y2="5" style="fill: none; stroke: #888; stroke-width: 1; opacity: 1;"></line><line transform="translate(167,0)" x2="0" y2="5" style="fill: none; stroke: #888; stroke-width: 1; opacity: 1;"></line><line transform="translate(200,0)" x2="0" y2="5" style="fill: none; stroke: #888; stroke-width: 1; opacity: 1;"></line><line transform="translate(233,0)" x2="0" y2="5" style="fill: none; stroke: #888; stroke-width: 1; opacity: 1;"></line><line transform="translate(267,0)" x2="0" y2="5" style="fill: none; stroke: #888; stroke-width: 1; opacity: 1;"></line><line transform="translate(300,0)" x2="0" y2="5" style="fill: none; stroke: #888; stroke-width: 1; opacity: 1;"></line><line transform="translate(333,0)" x2="0" y2="5" style="fill: none; stroke: #888; stroke-width: 1; opacity: 1;"></line><line transform="translate(367,0)" x2="0" y2="5" style="fill: none; stroke: #888; stroke-width: 1; opacity: 1;"></line><line transform="translate(400,0)" x2="0" y2="5" style="fill: none; stroke: #888; stroke-width: 1; opacity: 1;"></line><line transform="translate(433,0)" x2="0" y2="5" style="fill: none; stroke: #888; stroke-width: 1; opacity: 1;"></line><line transform="translate(467,0)" x2="0" y2="5" style="fill: none; stroke: #888; stroke-width: 1; opacity: 1;"></line><line transform="translate(500,0)" x2="0" y2="5" style="fill: none; stroke: #888; stroke-width: 1; opacity: 1;"></line><line transform="translate(533,0)" x2="0" y2="5" style="fill: none; stroke: #888; stroke-width: 1; opacity: 1;"></line><line transform="translate(567,0)" x2="0" y2="5" style="fill: none; stroke: #888; stroke-width: 1; opacity: 1;"></line><line transform="translate(600,0)" x2="0" y2="5" style="fill: none; stroke: #888; stroke-width: 1; opacity: 1;"></line></g><g class="mark-text role-axis-label" style="pointer-events: none;"><text text-anchor="start" transform="translate(0,15)" style="font: 10px sans-serif; fill: #000; opacity: 1;">32,798,000,000,000</text><text text-anchor="middle" transform="translate(33.33333333333333,15)" style="font: 10px sans-serif; fill: #000; opacity: 0;">32,799,000,000,000</text><text text-anchor="middle" transform="translate(66.66666666666666,15)" style="font: 10px sans-serif; fill: #000; opacity: 0;">32,800,000,000,000</text><text text-anchor="middle" transform="translate(100,15)" style="font: 10px sans-serif; fill: #000; opacity: 0;">32,801,000,000,000</text><text text-anchor="middle" transform="translate(133.33333333333331,15)" style="font: 10px sans-serif; fill: #000; opacity: 0;">32,802,000,000,000</text><text text-anchor="middle" transform="translate(166.66666666666669,15)" style="font: 10px sans-serif; fill: #000; opacity: 0;">32,803,000,000,000</text><text text-anchor="middle" transform="translate(200,15)" style="font: 10px sans-serif; fill: #000; opacity: 0;">32,804,000,000,000</text><text text-anchor="middle" transform="translate(233.33333333333334,15)" style="font: 10px sans-serif; fill: #000; opacity: 0;">32,805,000,000,000</text><text text-anchor="middle" transform="translate(266.66666666666663,15)" style="font: 10px sans-serif; fill: #000; opacity: 1;">32,806,000,000,000</text><text text-anchor="middle" transform="translate(300,15)" style="font: 10px sans-serif; fill: #000; opacity: 0;">32,807,000,000,000</text><text text-anchor="middle" transform="translate(333.33333333333337,15)" style="font: 10px sans-serif; fill: #000; opacity: 0;">32,808,000,000,000</text><text text-anchor="middle" transform="translate(366.6666666666667,15)" style="font: 10px sans-serif; fill: #000; opacity: 0;">32,809,000,000,000</text><text text-anchor="middle" transform="translate(400,15)" style="font: 10px sans-serif; fill: #000; opacity: 0;">32,810,000,000,000</text><text text-anchor="middle" transform="translate(433.3333333333333,15)" style="font: 10px sans-serif; fill: #000; opacity: 0;">32,811,000,000,000</text><text text-anchor="middle" transform="translate(466.6666666666667,15)" style="font: 10px sans-serif; fill: #000; opacity: 0;">32,812,000,000,000</text><text text-anchor="middle" transform="translate(500,15)" style="font: 10px sans-serif; fill: #000; opacity: 0;">32,813,000,000,000</text><text text-anchor="middle" transform="translate(533.3333333333333,15)" style="font: 10px sans-serif; fill: #000; opacity: 1;">32,814,000,000,000</text><text text-anchor="middle" transform="translate(566.6666666666666,15)" style="font: 10px sans-serif; fill: #000; opacity: 0;">32,815,000,000,000</text><text text-anchor="end" transform="translate(600,15)" style="font: 10px sans-serif; fill: #000; opacity: 0;">32,816,000,000,000</text></g><g class="mark-rule role-axis-domain" style="pointer-events: none;"><line transform="translate(0,0)" x2="600" y2="0" style="fill: none; stroke: #888; stroke-width: 1; opacity: 1;"></line></g><g class="mark-text role-axis-title" style="pointer-events: none;"><text text-anchor="middle" transform="translate(300,31)" style="font: bold 11px sans-serif; fill: #000; opacity: 1;">start, end</text></g></g></g></g><g class="mark-group role-axis"><g transform="translate(0.5,0.5)"><path class="background" d="M0,0h0v0h0Z" style="pointer-events: none; fill: none;"></path><g><g class="mark-rule role-axis-tick" style="pointer-events: none;"><line transform="translate(0,9)" x2="-5" y2="0" style="fill: none; stroke: #888; stroke-width: 1; opacity: 1;"></line><line transform="translate(0,31)" x2="-5" y2="0" style="fill: none; stroke: #888; stroke-width: 1; opacity: 1;"></line><line transform="translate(0,52)" x2="-5" y2="0" style="fill: none; stroke: #888; stroke-width: 1; opacity: 1;"></line><line transform="translate(0,73)" x2="-5" y2="0" style="fill: none; stroke: #888; stroke-width: 1; opacity: 1;"></line><line transform="translate(0,94)" x2="-5" y2="0" style="fill: none; stroke: #888; stroke-width: 1; opacity: 1;"></line><line transform="translate(0,115)" x2="-5" y2="0" style="fill: none; stroke: #888; stroke-width: 1; opacity: 1;"></line><line transform="translate(0,136)" x2="-5" y2="0" style="fill: none; stroke: #888; stroke-width: 1; opacity: 1;"></line></g><g class="mark-text role-axis-label" style="pointer-events: none;"><text text-anchor="end" transform="translate(-7,12.499999999999998)" style="font: 10px sans-serif; fill: #000; opacity: 1;">0</text><text text-anchor="end" transform="translate(-7,33.5)" style="font: 10px sans-serif; fill: #000; opacity: 1;">1</text><text text-anchor="end" transform="translate(-7,54.5)" style="font: 10px sans-serif; fill: #000; opacity: 1;">2</text><text text-anchor="end" transform="translate(-7,75.5)" style="font: 10px sans-serif; fill: #000; opacity: 1;">3</text><text text-anchor="end" transform="translate(-7,96.5)" style="font: 10px sans-serif; fill: #000; opacity: 1;">4</text><text text-anchor="end" transform="translate(-7,117.5)" style="font: 10px sans-serif; fill: #000; opacity: 1;">5</text><text text-anchor="end" transform="translate(-7,138.5)" style="font: 10px sans-serif; fill: #000; opacity: 1;">6</text></g><g class="mark-rule role-axis-domain" style="pointer-events: none;"><line transform="translate(0,0)" x2="0" y2="147" style="fill: none; stroke: #888; stroke-width: 1; opacity: 1;"></line></g><g class="mark-text role-axis-title" style="pointer-events: none;"><text text-anchor="middle" transform="translate(-34,73.5) rotate(-90) translate(0,-2)" style="font: bold 11px sans-serif; fill: #000; opacity: 1;">task</text></g></g></g></g></g></g></g></g></svg>